<svg xmlns="http://www.w3.org/2000/svg" xmlns:xlink="http://www.w3.org/1999/xlink" width="500" zoomAndPan="magnify" viewBox="0 0 375 374.999991" height="500" preserveAspectRatio="xMidYMid meet" version="1.0"><defs><g/><clipPath id="dda9f8e98c"><path d="M 102 171 L 165.804688 171 L 165.804688 227.84375 L 102 227.84375 Z M 102 171 " clip-rule="nonzero"/></clipPath><clipPath id="460650e800"><path d="M 72.054688 146.84375 L 139 146.84375 L 139 209 L 72.054688 209 Z M 72.054688 146.84375 " clip-rule="nonzero"/></clipPath></defs><rect x="-37.5" width="450" fill="#ffffff" y="-37.499999" height="449.999989" fill-opacity="1"/><rect x="-37.5" width="450" fill="#000000" y="-37.499999" height="449.999989" fill-opacity="1"/><g clip-path="url(#dda9f8e98c)"><path fill="#ffffff" d="M 102.152344 208.003906 C 102.164062 209.949219 102.1875 211.890625 102.222656 213.835938 C 102.222656 214.007812 102.28125 214.15625 102.40625 214.28125 C 102.527344 214.402344 102.675781 214.464844 102.847656 214.464844 C 107.574219 214.40625 112.296875 214.316406 117.023438 214.203125 C 121.730469 214.085938 126.433594 213.941406 131.132812 213.769531 C 133.792969 213.667969 136.453125 213.5625 139.113281 213.445312 C 139.429688 213.441406 139.628906 213.285156 139.722656 212.984375 C 140.378906 210.722656 138.933594 208.324219 136.886719 207.351562 C 135.792969 206.804688 134.660156 206.703125 133.488281 207.054688 C 132.441406 207.410156 131.597656 208.035156 130.957031 208.929688 C 129.664062 210.660156 129.382812 213.117188 130.425781 215.042969 C 131.082031 216.246094 132.132812 217.175781 133.1875 218.027344 C 134.40625 219.015625 135.636719 219.992188 136.863281 220.972656 L 145.402344 227.824219 C 145.800781 228.144531 146.484375 227.972656 146.472656 227.382812 C 146.414062 224.109375 146.359375 220.832031 146.300781 217.558594 L 145.675781 218.1875 L 154.449219 217.640625 C 155.828125 217.554688 157.222656 217.527344 158.589844 217.355469 C 159.824219 217.199219 161.007812 216.796875 161.800781 215.785156 C 162.476562 214.933594 162.78125 213.875 162.933594 212.8125 C 163.121094 211.503906 163.15625 210.179688 163.242188 208.863281 L 163.796875 200.101562 L 164.914062 182.515625 L 165.191406 178.136719 L 165.332031 175.914062 C 165.371094 175.269531 165.484375 174.582031 165.332031 173.945312 C 164.976562 172.496094 163.40625 172.542969 162.214844 172.5 L 157.820312 172.335938 L 140.203125 171.6875 L 138.039062 171.609375 C 137.230469 171.578125 137.234375 172.835938 138.039062 172.863281 L 155.101562 173.492188 L 159.367188 173.648438 L 161.460938 173.726562 C 162.128906 173.71875 162.792969 173.75 163.457031 173.8125 C 163.875 173.875 164.109375 174.042969 164.136719 174.480469 C 164.148438 175.125 164.113281 175.765625 164.042969 176.40625 L 163.765625 180.726562 L 162.6875 197.695312 L 162.152344 206.152344 L 161.878906 210.46875 C 161.8125 211.527344 161.773438 212.601562 161.484375 213.628906 C 161.222656 214.550781 160.726562 215.371094 159.824219 215.777344 C 158.734375 216.265625 157.394531 216.195312 156.226562 216.273438 L 147.761719 216.800781 L 145.667969 216.929688 C 145.496094 216.929688 145.347656 216.992188 145.222656 217.117188 C 145.101562 217.238281 145.039062 217.386719 145.039062 217.558594 C 145.097656 220.832031 145.152344 224.109375 145.210938 227.382812 L 146.285156 226.9375 L 139.285156 221.316406 L 135.828125 218.546875 C 134.78125 217.699219 133.664062 216.890625 132.703125 215.933594 C 131.945312 215.1875 131.324219 214.332031 131.109375 213.292969 C 130.957031 212.421875 131.042969 211.574219 131.371094 210.753906 C 131.964844 209.171875 133.550781 207.835938 135.320312 208.148438 C 137.339844 208.503906 139.101562 210.617188 138.507812 212.652344 L 139.113281 212.191406 C 134.394531 212.398438 129.671875 212.574219 124.945312 212.722656 C 120.222656 212.871094 115.515625 212.992188 110.835938 213.082031 C 108.171875 213.132812 105.511719 213.175781 102.847656 213.207031 L 103.476562 213.835938 C 103.445312 211.894531 103.421875 209.949219 103.40625 208.003906 C 103.40625 207.199219 102.152344 207.195312 102.152344 208.003906 Z M 102.152344 208.003906 " fill-opacity="1" fill-rule="nonzero"/></g><g clip-path="url(#460650e800)"><path fill="#ffffff" d="M 99.058594 148.433594 C 96.59375 148.6875 94.207031 149.261719 91.894531 150.152344 C 89.582031 151.039062 87.429688 152.214844 85.429688 153.675781 C 83.394531 155.148438 81.59375 156.867188 80.03125 158.832031 C 78.46875 160.796875 77.195312 162.9375 76.21875 165.25 C 75.449219 167.101562 74.882812 169.011719 74.523438 170.984375 C 74.160156 172.957031 74.011719 174.945312 74.078125 176.949219 C 74.140625 178.953125 74.414062 180.925781 74.902344 182.871094 C 75.386719 184.816406 76.074219 186.6875 76.960938 188.484375 C 77.570312 189.753906 78.21875 191.027344 78.484375 192.421875 C 78.667969 193.460938 78.613281 194.480469 78.3125 195.492188 C 77.753906 197.503906 76.511719 199.257812 75.371094 200.988281 C 74.179688 202.769531 72.96875 204.628906 72.433594 206.734375 C 72.300781 207.265625 72.210938 207.804688 72.171875 208.347656 C 72.171875 208.523438 72.234375 208.671875 72.355469 208.792969 C 72.476562 208.914062 72.625 208.976562 72.800781 208.976562 C 75.34375 208.941406 77.828125 208.53125 80.246094 207.746094 C 82.667969 206.960938 84.917969 205.835938 87 204.371094 C 88.039062 203.644531 89.015625 202.839844 89.929688 201.964844 C 90.351562 201.558594 90.738281 201.164062 90.917969 200.59375 C 91.0625 200.109375 91.054688 199.628906 90.890625 199.152344 C 90.5 198.042969 89.460938 197.492188 88.316406 197.519531 C 87.710938 197.519531 87.15625 197.683594 86.648438 198.011719 C 86.140625 198.339844 85.761719 198.777344 85.511719 199.328125 C 85.042969 200.414062 85.011719 201.515625 85.414062 202.625 C 85.835938 203.800781 86.566406 204.742188 87.597656 205.445312 C 88.613281 206.171875 89.816406 206.621094 91.007812 206.964844 C 92.308594 207.332031 93.621094 207.632812 94.945312 207.867188 C 100.46875 208.875 106.167969 208.933594 111.679688 207.828125 C 116.664062 206.847656 121.246094 204.910156 125.417969 202.011719 C 129.386719 199.269531 132.59375 195.824219 135.046875 191.667969 C 137.5625 187.289062 138.871094 182.570312 138.972656 177.519531 C 139.101562 172.421875 138.015625 167.597656 135.722656 163.046875 C 133.484375 158.71875 130.363281 155.164062 126.363281 152.382812 C 122.464844 149.632812 118.15625 147.898438 113.441406 147.179688 C 112.28125 147.003906 111.113281 146.898438 109.9375 146.863281 C 109.128906 146.839844 109.132812 148.097656 109.9375 148.121094 C 114.4375 148.265625 118.664062 149.410156 122.621094 151.546875 C 126.582031 153.65625 129.875 156.527344 132.5 160.164062 C 135.238281 164.027344 136.898438 168.308594 137.484375 173.007812 C 138.09375 177.753906 137.578125 182.371094 135.929688 186.863281 C 134.375 191.050781 131.753906 194.792969 128.527344 197.855469 C 125.253906 200.953125 121.507812 203.304688 117.292969 204.90625 C 112.390625 206.765625 107.128906 207.527344 101.898438 207.359375 C 99.25 207.269531 96.632812 206.953125 94.039062 206.40625 C 91.800781 205.933594 89.175781 205.449219 87.515625 203.738281 C 86.824219 203.019531 86.453125 202.164062 86.40625 201.164062 C 86.375 200.300781 86.6875 199.304688 87.539062 198.925781 C 87.972656 198.746094 88.417969 198.707031 88.875 198.8125 C 89.234375 198.878906 89.492188 199.078125 89.652344 199.402344 C 89.710938 199.527344 89.746094 199.65625 89.761719 199.789062 C 89.789062 199.972656 89.761719 200.152344 89.6875 200.320312 C 89.625 200.449219 89.546875 200.570312 89.449219 200.675781 C 89.226562 200.910156 88.988281 201.128906 88.75 201.347656 C 87.003906 202.957031 85.0625 204.28125 82.925781 205.316406 C 80.789062 206.355469 78.550781 207.0625 76.207031 207.441406 C 75.078125 207.621094 73.941406 207.710938 72.800781 207.722656 L 73.425781 208.347656 C 73.585938 206.300781 74.632812 204.433594 75.730469 202.722656 C 76.855469 200.953125 78.132812 199.25 78.976562 197.316406 C 79.417969 196.339844 79.695312 195.316406 79.8125 194.25 C 79.90625 192.972656 79.722656 191.734375 79.253906 190.539062 C 78.765625 189.222656 78.082031 187.988281 77.511719 186.703125 C 77.003906 185.539062 76.585938 184.34375 76.257812 183.117188 C 75.585938 180.617188 75.277344 178.074219 75.328125 175.488281 C 75.382812 172.898438 75.792969 170.371094 76.566406 167.902344 C 77.3125 165.558594 78.371094 163.367188 79.742188 161.328125 C 81.109375 159.285156 82.738281 157.476562 84.621094 155.898438 C 86.441406 154.359375 88.429688 153.082031 90.585938 152.070312 C 92.742188 151.054688 94.996094 150.339844 97.339844 149.921875 C 97.910156 149.824219 98.484375 149.746094 99.058594 149.6875 C 99.230469 149.683594 99.375 149.617188 99.496094 149.496094 C 99.617188 149.375 99.679688 149.230469 99.6875 149.058594 C 99.6875 148.886719 99.625 148.738281 99.503906 148.617188 C 99.378906 148.492188 99.230469 148.433594 99.058594 148.433594 Z M 99.058594 148.433594 " fill-opacity="1" fill-rule="nonzero"/></g><path fill="#ffffff" d="M 93.128906 179.253906 C 93.726562 179.25 94.234375 179.039062 94.664062 178.625 C 94.976562 178.316406 95.175781 177.945312 95.261719 177.511719 C 95.351562 177.082031 95.308594 176.664062 95.140625 176.253906 C 94.972656 175.847656 94.707031 175.523438 94.339844 175.277344 C 93.972656 175.035156 93.570312 174.914062 93.128906 174.914062 C 92.535156 174.917969 92.023438 175.128906 91.59375 175.542969 C 91.285156 175.851562 91.085938 176.222656 91 176.652344 C 90.917969 177.082031 90.957031 177.5 91.125 177.90625 C 91.292969 178.3125 91.558594 178.636719 91.925781 178.882812 C 92.289062 179.125 92.691406 179.246094 93.128906 179.246094 Z M 93.128906 179.253906 " fill-opacity="1" fill-rule="nonzero"/><path fill="#ffffff" d="M 106.945312 179.253906 C 107.539062 179.25 108.050781 179.039062 108.480469 178.625 C 108.792969 178.316406 108.992188 177.945312 109.078125 177.511719 C 109.164062 177.082031 109.125 176.664062 108.957031 176.253906 C 108.789062 175.847656 108.523438 175.523438 108.15625 175.277344 C 107.789062 175.035156 107.386719 174.914062 106.945312 174.914062 C 106.351562 174.917969 105.839844 175.128906 105.410156 175.542969 C 105.101562 175.851562 104.902344 176.222656 104.816406 176.652344 C 104.730469 177.082031 104.773438 177.5 104.941406 177.90625 C 105.109375 178.3125 105.375 178.636719 105.742188 178.882812 C 106.105469 179.125 106.507812 179.246094 106.945312 179.246094 Z M 106.945312 179.253906 " fill-opacity="1" fill-rule="nonzero"/><path fill="#ffffff" d="M 120.761719 179.253906 C 121.355469 179.25 121.867188 179.039062 122.296875 178.625 C 122.609375 178.316406 122.808594 177.945312 122.894531 177.511719 C 122.980469 177.082031 122.941406 176.664062 122.773438 176.253906 C 122.605469 175.847656 122.335938 175.523438 121.972656 175.277344 C 121.605469 175.035156 121.203125 174.914062 120.761719 174.914062 C 120.167969 174.917969 119.65625 175.128906 119.226562 175.542969 C 118.917969 175.851562 118.71875 176.222656 118.632812 176.652344 C 118.546875 177.082031 118.589844 177.5 118.757812 177.90625 C 118.925781 178.3125 119.191406 178.636719 119.554688 178.882812 C 119.921875 179.125 120.324219 179.246094 120.761719 179.246094 Z M 120.761719 179.253906 " fill-opacity="1" fill-rule="nonzero"/><g fill="#ffffff" fill-opacity="1"><g transform="translate(177.091283, 200.250001)"><g><path d="M 5.3125 -23.453125 L 5.8125 -25.921875 L 21.015625 -25.921875 L 20.515625 -23.453125 L 14.25 -23.453125 L 9.6875 -0.078125 L 7.03125 -0.078125 L 11.59375 -23.453125 Z M 5.3125 -23.453125 "/></g></g></g><g fill="#ffffff" fill-opacity="1"><g transform="translate(193.807873, 200.250001)"><g><path d="M 17.78125 -8.359375 C 18.082031 -9.984375 17.789062 -11.398438 16.90625 -12.609375 C 16 -13.828125 14.722656 -14.4375 13.078125 -14.4375 C 11.398438 -14.4375 9.878906 -13.828125 8.515625 -12.609375 C 7.140625 -11.398438 6.300781 -9.984375 6 -8.359375 C 5.695312 -6.710938 5.976562 -5.296875 6.84375 -4.109375 C 7.75 -2.890625 9.039062 -2.28125 10.71875 -2.28125 C 12.363281 -2.28125 13.867188 -2.890625 15.234375 -4.109375 C 16.628906 -5.347656 17.476562 -6.765625 17.78125 -8.359375 Z M 18.8125 0 L 16.15625 0 L 16.71875 -2.84375 C 16.613281 -2.75 16.507812 -2.65625 16.40625 -2.5625 C 16.3125 -2.476562 16.210938 -2.382812 16.109375 -2.28125 C 14.179688 -0.507812 12.066406 0.375 9.765625 0.375 C 7.429688 0.375 5.660156 -0.507812 4.453125 -2.28125 C 3.253906 -3.976562 2.882812 -6.003906 3.34375 -8.359375 C 3.800781 -10.710938 4.953125 -12.738281 6.796875 -14.4375 C 8.722656 -16.207031 10.835938 -17.09375 13.140625 -17.09375 C 15.472656 -17.09375 17.25 -16.207031 18.46875 -14.4375 C 18.519531 -14.332031 18.582031 -14.234375 18.65625 -14.140625 C 18.726562 -14.054688 18.789062 -13.96875 18.84375 -13.875 L 19.421875 -16.71875 L 22.078125 -16.71875 Z M 18.8125 0 "/></g></g></g><g fill="#ffffff" fill-opacity="1"><g transform="translate(215.463446, 200.250001)"><g><path d="M 5.515625 0 L 2.84375 0 L 8.390625 -28.5 L 11.0625 -28.5 Z M 5.515625 0 "/></g></g></g><g fill="#ffffff" fill-opacity="1"><g transform="translate(223.821741, 200.250001)"><g><path d="M 5.515625 0 L 2.84375 0 L 8.390625 -28.5 L 11.0625 -28.5 L 7.296875 -9.234375 L 14.890625 -16.765625 L 18.4375 -16.765625 L 9.953125 -8.625 L 15.625 0 L 12.078125 0 L 7.0625 -8.015625 Z M 5.515625 0 "/></g></g></g><g fill="#ffffff" fill-opacity="1"><g transform="translate(239.816472, 200.250001)"><g><path d="M 5.515625 0 L 2.84375 0 L 7.859375 -25.84375 L 10.53125 -25.84375 L 8.28125 -14.21875 L 20.03125 -14.21875 L 22.265625 -25.84375 L 24.921875 -25.84375 L 19.90625 0 L 17.25 0 L 19.5 -11.546875 L 7.75 -11.546875 Z M 5.515625 0 "/></g></g></g><g fill="#ffffff" fill-opacity="1"><g transform="translate(262.573825, 200.250001)"><g><path d="M 14.96875 -2.84375 C 13.300781 -0.71875 11.222656 0.34375 8.734375 0.34375 C 6.859375 0.34375 5.519531 -0.273438 4.71875 -1.515625 C 3.90625 -2.753906 3.6875 -4.335938 4.0625 -6.265625 L 6.125 -16.71875 L 8.78125 -16.71875 L 6.71875 -6.265625 C 6.5 -5.179688 6.566406 -4.242188 6.921875 -3.453125 C 7.273438 -2.691406 8.019531 -2.3125 9.15625 -2.3125 C 11.238281 -2.3125 12.835938 -2.972656 13.953125 -4.296875 C 15.066406 -5.609375 15.847656 -7.421875 16.296875 -9.734375 L 17.671875 -16.71875 L 20.328125 -16.71875 L 17.0625 0 L 14.40625 0 Z M 14.96875 -2.84375 "/></g></g></g><g fill="#ffffff" fill-opacity="1"><g transform="translate(281.911879, 200.250001)"><g><path d="M 5.515625 0 L 2.84375 0 L 8.390625 -28.5 L 11.0625 -28.5 L 8.203125 -13.875 L 8.78125 -14.4375 C 10.707031 -16.207031 12.820312 -17.09375 15.125 -17.09375 C 17.457031 -17.09375 19.226562 -16.207031 20.4375 -14.4375 C 21.65625 -12.71875 22.035156 -10.691406 21.578125 -8.359375 C 21.128906 -6.023438 19.96875 -4 18.09375 -2.28125 C 16.164062 -0.507812 14.046875 0.375 11.734375 0.375 C 9.410156 0.375 7.640625 -0.507812 6.421875 -2.28125 L 6.078125 -2.84375 Z M 18.921875 -8.359375 C 19.222656 -9.984375 18.929688 -11.398438 18.046875 -12.609375 C 17.140625 -13.828125 15.863281 -14.4375 14.21875 -14.4375 C 12.539062 -14.4375 11.019531 -13.828125 9.65625 -12.609375 C 8.28125 -11.398438 7.441406 -9.984375 7.140625 -8.359375 C 6.835938 -6.710938 7.117188 -5.296875 7.984375 -4.109375 C 8.890625 -2.890625 10.179688 -2.28125 11.859375 -2.28125 C 13.503906 -2.28125 15.007812 -2.890625 16.375 -4.109375 C 17.769531 -5.347656 18.617188 -6.765625 18.921875 -8.359375 Z M 18.921875 -8.359375 "/></g></g></g></svg>