<svg xmlns="http://www.w3.org/2000/svg" xmlns:xlink="http://www.w3.org/1999/xlink" width="500" zoomAndPan="magnify" viewBox="0 0 375 374.999991" height="500" preserveAspectRatio="xMidYMid meet" version="1.0"><defs><clipPath id="e1113b6db9"><path d="M 15.503906 38.539062 L 262 38.539062 L 262 268 L 15.503906 268 Z M 15.503906 38.539062 " clip-rule="nonzero"/></clipPath></defs><rect x="-37.5" width="450" fill="#ffffff" y="-37.499999" height="449.999989" fill-opacity="1"/><rect x="-37.5" width="450" fill="#ffffff" y="-37.499999" height="449.999989" fill-opacity="1"/><path fill="#000000" d="M 126.164062 263.433594 C 126.214844 270.578125 126.300781 277.722656 126.417969 284.871094 C 126.417969 285.179688 126.476562 285.472656 126.59375 285.753906 C 126.710938 286.039062 126.878906 286.289062 127.09375 286.503906 C 127.308594 286.722656 127.558594 286.886719 127.84375 287.003906 C 128.125 287.121094 128.421875 287.179688 128.726562 287.179688 C 146.097656 286.964844 163.472656 286.644531 180.851562 286.21875 C 198.148438 285.789062 215.441406 285.257812 232.730469 284.625 C 242.511719 284.261719 252.292969 283.867188 262.070312 283.441406 C 262.589844 283.429688 263.050781 283.269531 263.464844 282.957031 C 263.875 282.644531 264.15625 282.242188 264.304688 281.746094 C 266.722656 273.425781 261.410156 264.613281 253.882812 261.035156 C 251.945312 260.058594 249.898438 259.480469 247.738281 259.289062 C 245.578125 259.101562 243.457031 259.316406 241.382812 259.941406 C 239.507812 260.574219 237.777344 261.480469 236.191406 262.65625 C 234.601562 263.832031 233.230469 265.222656 232.078125 266.828125 C 227.328125 273.203125 226.296875 282.222656 230.128906 289.304688 C 232.539062 293.738281 236.410156 297.148438 240.28125 300.28125 C 244.761719 303.914062 249.289062 307.507812 253.789062 311.117188 L 285.195312 336.3125 C 286.65625 337.488281 289.171875 336.851562 289.136719 334.679688 C 288.917969 322.640625 288.710938 310.601562 288.503906 298.566406 L 286.195312 300.875 L 318.460938 298.859375 C 323.527344 298.542969 328.652344 298.449219 333.6875 297.8125 C 338.21875 297.234375 342.578125 295.753906 345.492188 292.046875 C 347.972656 288.90625 349.097656 285.011719 349.65625 281.109375 C 350.34375 276.304688 350.480469 271.425781 350.789062 266.589844 L 352.828125 234.371094 L 356.9375 169.714844 L 357.957031 153.605469 L 358.480469 145.429688 C 358.625 143.066406 359.03125 140.535156 358.480469 138.195312 C 357.164062 132.867188 351.398438 133.039062 347.019531 132.875 L 330.855469 132.285156 L 266.082031 129.898438 L 258.125 129.605469 C 255.152344 129.496094 255.160156 134.117188 258.125 134.222656 L 320.863281 136.53125 L 336.542969 137.109375 L 344.238281 137.394531 C 346.691406 137.367188 349.140625 137.472656 351.582031 137.710938 C 353.121094 137.941406 353.976562 138.558594 354.082031 140.164062 C 354.121094 142.535156 354 144.894531 353.730469 147.246094 L 352.722656 163.132812 L 348.757812 225.527344 L 346.785156 256.617188 L 345.777344 272.496094 C 345.53125 276.390625 345.394531 280.332031 344.324219 284.109375 C 343.371094 287.496094 341.539062 290.515625 338.21875 292.007812 C 334.210938 293.808594 329.285156 293.546875 324.988281 293.839844 L 293.867188 295.777344 L 286.171875 296.257812 C 285.867188 296.257812 285.570312 296.3125 285.289062 296.429688 C 285.003906 296.550781 284.753906 296.714844 284.539062 296.933594 C 284.324219 297.148438 284.15625 297.398438 284.039062 297.679688 C 283.921875 297.964844 283.863281 298.257812 283.863281 298.566406 C 284.066406 310.601562 284.277344 322.640625 284.492188 334.679688 L 288.433594 333.046875 L 262.695312 312.382812 L 249.996094 302.199219 C 246.148438 299.082031 242.035156 296.101562 238.496094 292.59375 C 235.710938 289.84375 233.421875 286.703125 232.644531 282.871094 C 232.078125 279.667969 232.394531 276.554688 233.601562 273.535156 C 235.785156 267.730469 241.613281 262.8125 248.125 263.957031 C 255.546875 265.265625 262.027344 273.042969 259.847656 280.523438 L 262.070312 278.820312 C 244.71875 279.585938 227.351562 280.242188 209.976562 280.785156 C 192.601562 281.328125 175.308594 281.765625 158.089844 282.101562 C 148.300781 282.285156 138.511719 282.441406 128.726562 282.5625 L 131.035156 284.871094 C 130.917969 277.730469 130.832031 270.582031 130.78125 263.433594 C 130.78125 260.464844 126.164062 260.457031 126.164062 263.433594 Z M 126.164062 263.433594 " fill-opacity="1" fill-rule="nonzero"/><g clip-path="url(#e1113b6db9)"><path fill="#000000" d="M 114.789062 44.382812 C 110.277344 44.851562 105.820312 45.613281 101.410156 46.671875 C 97 47.730469 92.679688 49.074219 88.449219 50.703125 C 84.21875 52.332031 80.113281 54.230469 76.132812 56.402344 C 72.152344 58.574219 68.332031 60.996094 64.671875 63.671875 C 60.949219 66.367188 57.425781 69.300781 54.101562 72.472656 C 50.78125 75.648438 47.6875 79.035156 44.824219 82.628906 C 41.964844 86.222656 39.359375 89.996094 37.011719 93.949219 C 34.664062 97.898438 32.59375 101.988281 30.804688 106.222656 C 29.394531 109.613281 28.164062 113.074219 27.125 116.597656 C 26.082031 120.121094 25.230469 123.691406 24.566406 127.308594 C 23.90625 130.921875 23.4375 134.5625 23.164062 138.226562 C 22.890625 141.894531 22.8125 145.5625 22.929688 149.234375 C 23.046875 152.910156 23.359375 156.566406 23.867188 160.207031 C 24.375 163.847656 25.074219 167.449219 25.964844 171.015625 C 26.855469 174.582031 27.933594 178.089844 29.199219 181.539062 C 30.464844 184.988281 31.910156 188.363281 33.535156 191.660156 C 35.785156 196.324219 38.15625 201.003906 39.132812 206.136719 C 39.820312 209.949219 39.613281 213.710938 38.507812 217.421875 C 36.445312 224.820312 31.882812 231.277344 27.6875 237.625 C 23.308594 244.175781 18.851562 251.011719 16.886719 258.753906 C 16.398438 260.707031 16.078125 262.691406 15.925781 264.699219 C 15.925781 265.003906 15.984375 265.296875 16.101562 265.582031 C 16.21875 265.863281 16.386719 266.113281 16.601562 266.332031 C 16.816406 266.546875 17.066406 266.714844 17.351562 266.832031 C 17.632812 266.949219 17.929688 267.007812 18.234375 267.007812 C 22.886719 266.941406 27.507812 266.53125 32.097656 265.773438 C 36.6875 265.015625 41.195312 263.917969 45.621094 262.484375 C 50.046875 261.046875 54.339844 259.292969 58.503906 257.210938 C 62.664062 255.128906 66.648438 252.75 70.453125 250.074219 C 74.265625 247.394531 77.859375 244.441406 81.226562 241.222656 C 82.765625 239.734375 84.199219 238.273438 84.851562 236.179688 C 85.390625 234.40625 85.359375 232.640625 84.761719 230.882812 C 83.3125 226.796875 79.496094 224.78125 75.285156 224.871094 C 74.199219 224.875 73.132812 225.03125 72.089844 225.339844 C 71.042969 225.648438 70.066406 226.097656 69.152344 226.6875 C 68.238281 227.277344 67.425781 227.984375 66.714844 228.808594 C 66.003906 229.632812 65.421875 230.539062 64.972656 231.53125 C 64.144531 233.457031 63.699219 235.464844 63.640625 237.558594 C 63.582031 239.652344 63.910156 241.683594 64.625 243.652344 C 65.382812 245.761719 66.445312 247.703125 67.816406 249.472656 C 69.1875 251.246094 70.800781 252.761719 72.652344 254.023438 C 76.386719 256.691406 80.8125 258.347656 85.191406 259.609375 C 89.960938 260.957031 94.789062 262.058594 99.671875 262.917969 C 119.976562 266.636719 140.933594 266.851562 161.199219 262.78125 C 170.265625 261 179.054688 258.308594 187.5625 254.703125 C 196.070312 251.101562 204.121094 246.667969 211.710938 241.398438 C 218.917969 236.417969 225.507812 230.71875 231.480469 224.304688 C 237.449219 217.890625 242.664062 210.914062 247.117188 203.367188 C 251.667969 195.4375 255.164062 187.070312 257.609375 178.261719 C 260.054688 169.453125 261.371094 160.480469 261.554688 151.339844 C 261.785156 142.113281 260.886719 132.996094 258.863281 123.992188 C 256.84375 114.984375 253.753906 106.359375 249.601562 98.117188 C 245.550781 90.277344 240.613281 83.042969 234.789062 76.410156 C 228.96875 69.777344 222.4375 63.941406 215.1875 58.90625 C 208.117188 53.921875 200.570312 49.8125 192.542969 46.578125 C 184.515625 43.347656 176.226562 41.078125 167.675781 39.773438 C 163.40625 39.132812 159.113281 38.746094 154.796875 38.617188 C 151.816406 38.53125 151.824219 43.152344 154.796875 43.234375 C 162.953125 43.5 170.96875 44.699219 178.84375 46.828125 C 186.722656 48.957031 194.25 51.964844 201.425781 55.84375 C 208.613281 59.664062 215.273438 64.25 221.40625 69.597656 C 227.539062 74.945312 232.992188 80.917969 237.757812 87.515625 C 242.710938 94.515625 246.734375 102.007812 249.835938 110 C 252.933594 117.992188 255.015625 126.242188 256.074219 134.746094 C 257.183594 143.34375 257.253906 151.953125 256.289062 160.566406 C 255.324219 169.183594 253.347656 177.5625 250.363281 185.703125 C 244.644531 201.097656 235.015625 214.859375 223.148438 226.113281 C 217.183594 231.753906 210.726562 236.753906 203.773438 241.117188 C 196.820312 245.480469 189.507812 249.121094 181.835938 252.035156 C 163.808594 258.878906 144.46875 261.679688 125.226562 261.066406 C 115.492188 260.734375 105.863281 259.566406 96.335938 257.554688 C 88.109375 255.824219 78.449219 254.03125 72.34375 247.75 C 71.113281 246.46875 70.144531 245.015625 69.445312 243.386719 C 68.742188 241.757812 68.347656 240.054688 68.265625 238.28125 C 68.148438 235.109375 69.304688 231.4375 72.4375 230.050781 C 74.03125 229.386719 75.667969 229.246094 77.347656 229.636719 C 77.96875 229.753906 78.527344 230.003906 79.03125 230.382812 C 79.53125 230.765625 79.921875 231.242188 80.195312 231.808594 C 80.414062 232.257812 80.546875 232.730469 80.605469 233.222656 C 80.699219 233.902344 80.609375 234.554688 80.328125 235.179688 C 80.101562 235.65625 79.808594 236.089844 79.449219 236.480469 C 78.632812 237.34375 77.757812 238.148438 76.886719 238.957031 C 73.691406 241.898438 70.300781 244.59375 66.710938 247.039062 C 63.125 249.484375 59.375 251.652344 55.46875 253.550781 C 51.5625 255.449219 47.539062 257.050781 43.398438 258.359375 C 39.257812 259.664062 35.042969 260.664062 30.757812 261.355469 C 26.609375 262.015625 22.433594 262.359375 18.234375 262.386719 L 20.542969 264.699219 C 21.121094 257.167969 24.96875 250.296875 29.011719 244.007812 C 33.144531 237.503906 37.847656 231.246094 40.941406 224.132812 C 42.566406 220.539062 43.59375 216.78125 44.019531 212.855469 C 44.371094 208.15625 43.691406 203.609375 41.972656 199.21875 C 40.171875 194.367188 37.660156 189.835938 35.566406 185.109375 C 33.695312 180.832031 32.15625 176.433594 30.949219 171.925781 C 29.722656 167.351562 28.820312 162.714844 28.25 158.015625 C 27.679688 153.316406 27.441406 148.601562 27.535156 143.867188 C 27.632812 139.132812 28.0625 134.429688 28.824219 129.757812 C 29.585938 125.085938 30.675781 120.492188 32.089844 115.972656 C 33.457031 111.691406 35.117188 107.523438 37.070312 103.472656 C 39.023438 99.425781 41.253906 95.53125 43.757812 91.800781 C 46.265625 88.066406 49.019531 84.527344 52.023438 81.179688 C 55.03125 77.835938 58.253906 74.71875 61.699219 71.832031 C 65.03125 69.015625 68.535156 66.429688 72.207031 64.074219 C 75.878906 61.71875 79.6875 59.613281 83.636719 57.757812 C 87.585938 55.902344 91.640625 54.316406 95.796875 52.992188 C 99.953125 51.671875 104.179688 50.628906 108.476562 49.863281 C 110.570312 49.503906 112.671875 49.214844 114.789062 49 C 115.089844 48.992188 115.382812 48.925781 115.660156 48.804688 C 115.9375 48.683594 116.183594 48.515625 116.398438 48.304688 C 116.613281 48.089844 116.78125 47.84375 116.902344 47.5625 C 117.023438 47.285156 117.085938 46.996094 117.097656 46.691406 C 117.097656 46.386719 117.039062 46.089844 116.921875 45.808594 C 116.804688 45.523438 116.636719 45.273438 116.421875 45.058594 C 116.203125 44.84375 115.953125 44.675781 115.671875 44.558594 C 115.386719 44.441406 115.09375 44.382812 114.789062 44.382812 Z M 114.789062 44.382812 " fill-opacity="1" fill-rule="nonzero"/></g><path fill="#000000" d="M 92.988281 157.714844 C 94.042969 157.707031 95.058594 157.5 96.03125 157.101562 C 97.007812 156.703125 97.875 156.136719 98.632812 155.40625 C 99.191406 154.847656 99.660156 154.222656 100.035156 153.523438 C 100.410156 152.828125 100.675781 152.089844 100.832031 151.316406 C 100.988281 150.539062 101.027344 149.757812 100.953125 148.96875 C 100.875 148.183594 100.6875 147.421875 100.382812 146.691406 C 100.082031 145.960938 99.679688 145.289062 99.175781 144.675781 C 98.675781 144.066406 98.09375 143.539062 97.4375 143.101562 C 96.777344 142.660156 96.070312 142.328125 95.3125 142.097656 C 94.554688 141.871094 93.78125 141.757812 92.988281 141.757812 C 91.933594 141.769531 90.921875 141.972656 89.945312 142.371094 C 88.972656 142.769531 88.105469 143.335938 87.347656 144.066406 C 86.789062 144.625 86.324219 145.253906 85.953125 145.949219 C 85.582031 146.644531 85.316406 147.378906 85.164062 148.152344 C 85.011719 148.929688 84.972656 149.707031 85.050781 150.492188 C 85.128906 151.277344 85.316406 152.035156 85.617188 152.765625 C 85.921875 153.492188 86.320312 154.164062 86.820312 154.773438 C 87.324219 155.382812 87.902344 155.90625 88.554688 156.34375 C 89.210938 156.785156 89.917969 157.117188 90.671875 157.347656 C 91.429688 157.578125 92.199219 157.691406 92.988281 157.691406 Z M 92.988281 157.714844 " fill-opacity="1" fill-rule="nonzero"/><path fill="#000000" d="M 143.789062 157.714844 C 144.84375 157.707031 145.859375 157.5 146.832031 157.101562 C 147.808594 156.703125 148.675781 156.136719 149.433594 155.40625 C 149.992188 154.847656 150.460938 154.222656 150.835938 153.523438 C 151.210938 152.828125 151.476562 152.089844 151.632812 151.316406 C 151.789062 150.539062 151.832031 149.757812 151.753906 148.96875 C 151.675781 148.183594 151.488281 147.421875 151.1875 146.691406 C 150.882812 145.960938 150.480469 145.289062 149.980469 144.675781 C 149.476562 144.066406 148.894531 143.539062 148.238281 143.101562 C 147.578125 142.660156 146.871094 142.328125 146.113281 142.097656 C 145.355469 141.871094 144.582031 141.757812 143.789062 141.757812 C 142.738281 141.769531 141.722656 141.972656 140.746094 142.371094 C 139.773438 142.769531 138.90625 143.335938 138.148438 144.066406 C 137.589844 144.625 137.125 145.253906 136.753906 145.949219 C 136.382812 146.644531 136.121094 147.378906 135.964844 148.152344 C 135.8125 148.929688 135.773438 149.707031 135.851562 150.492188 C 135.929688 151.277344 136.117188 152.035156 136.417969 152.765625 C 136.722656 153.492188 137.121094 154.164062 137.625 154.773438 C 138.125 155.382812 138.703125 155.90625 139.359375 156.34375 C 140.015625 156.785156 140.71875 157.117188 141.472656 157.347656 C 142.230469 157.578125 143 157.691406 143.789062 157.691406 Z M 143.789062 157.714844 " fill-opacity="1" fill-rule="nonzero"/><path fill="#000000" d="M 194.589844 157.714844 C 195.644531 157.707031 196.660156 157.5 197.632812 157.101562 C 198.609375 156.703125 199.476562 156.136719 200.234375 155.40625 C 200.796875 154.847656 201.261719 154.222656 201.636719 153.523438 C 202.015625 152.828125 202.277344 152.089844 202.433594 151.316406 C 202.589844 150.539062 202.632812 149.757812 202.554688 148.96875 C 202.476562 148.183594 202.289062 147.421875 201.988281 146.691406 C 201.683594 145.960938 201.28125 145.289062 200.78125 144.675781 C 200.277344 144.066406 199.699219 143.539062 199.039062 143.101562 C 198.378906 142.660156 197.671875 142.328125 196.914062 142.097656 C 196.15625 141.871094 195.382812 141.757812 194.589844 141.757812 C 193.539062 141.769531 192.523438 141.972656 191.546875 142.371094 C 190.574219 142.769531 189.707031 143.335938 188.949219 144.066406 C 188.390625 144.625 187.925781 145.253906 187.554688 145.949219 C 187.183594 146.644531 186.921875 147.378906 186.765625 148.152344 C 186.613281 148.929688 186.574219 149.707031 186.652344 150.492188 C 186.730469 151.277344 186.917969 152.035156 187.222656 152.765625 C 187.523438 153.492188 187.925781 154.164062 188.425781 154.773438 C 188.925781 155.382812 189.503906 155.90625 190.160156 156.34375 C 190.816406 156.785156 191.519531 157.117188 192.273438 157.347656 C 193.03125 157.578125 193.800781 157.691406 194.589844 157.691406 Z M 194.589844 157.714844 " fill-opacity="1" fill-rule="nonzero"/></svg>